<svg width="400" height="300" viewBox="0 0 400 300" xmlns="http://www.w3.org/2000/svg">
  <rect width="400" height="300" fill="#f8fafc" />
  
  <!-- 标题 -->
  <rect x="100" y="20" width="200" height="30" rx="4" fill="#e2e8f0" />
  
  <!-- 网格项目 -->
  <rect x="30" y="80" width="160" height="90" rx="6" fill="#ffffff" stroke="#cbd5e1" stroke-width="2" />
  <rect x="50" y="100" width="120" height="10" rx="2" fill="#94a3b8" />
  <rect x="50" y="120" width="120" height="30" rx="2" fill="#e2e8f0" />
  
  <rect x="210" y="80" width="160" height="90" rx="6" fill="#ffffff" stroke="#cbd5e1" stroke-width="2" />
  <rect x="230" y="100" width="120" height="10" rx="2" fill="#94a3b8" />
  <rect x="230" y="120" width="120" height="30" rx="2" fill="#e2e8f0" />
  
  <rect x="30" y="190" width="160" height="90" rx="6" fill="#ffffff" stroke="#cbd5e1" stroke-width="2" />
  <rect x="50" y="210" width="120" height="10" rx="2" fill="#94a3b8" />
  <rect x="50" y="230" width="120" height="30" rx="2" fill="#e2e8f0" />
  
  <rect x="210" y="190" width="160" height="90" rx="6" fill="#ffffff" stroke="#cbd5e1" stroke-width="2" />
  <rect x="230" y="210" width="120" height="10" rx="2" fill="#94a3b8" />
  <rect x="230" y="230" width="120" height="30" rx="2" fill="#e2e8f0" />
</svg> 