<svg width="400" height="300" viewBox="0 0 400 300" xmlns="http://www.w3.org/2000/svg">
  <rect width="400" height="300" fill="#f8fafc" />
  
  <!-- 标题 -->
  <rect x="100" y="20" width="200" height="30" rx="4" fill="#e2e8f0" />
  
  <!-- 瀑布流项目 - 左列 -->
  <rect x="30" y="70" width="160" height="70" rx="6" fill="#ffffff" stroke="#cbd5e1" stroke-width="2" />
  <rect x="50" y="85" width="120" height="10" rx="2" fill="#94a3b8" />
  <rect x="50" y="100" width="120" height="20" rx="2" fill="#e2e8f0" />
  
  <rect x="30" y="150" width="160" height="130" rx="6" fill="#ffffff" stroke="#cbd5e1" stroke-width="2" />
  <rect x="50" y="165" width="120" height="10" rx="2" fill="#94a3b8" />
  <rect x="50" y="180" width="120" height="80" rx="2" fill="#e2e8f0" />
  
  <!-- 瀑布流项目 - 右列 -->
  <rect x="210" y="70" width="160" height="110" rx="6" fill="#ffffff" stroke="#cbd5e1" stroke-width="2" />
  <rect x="230" y="85" width="120" height="10" rx="2" fill="#94a3b8" />
  <rect x="230" y="100" width="120" height="60" rx="2" fill="#e2e8f0" />
  
  <rect x="210" y="190" width="160" height="90" rx="6" fill="#ffffff" stroke="#cbd5e1" stroke-width="2" />
  <rect x="230" y="205" width="120" height="10" rx="2" fill="#94a3b8" />
  <rect x="230" y="220" width="120" height="40" rx="2" fill="#e2e8f0" />
</svg> 