<svg width="400" height="300" viewBox="0 0 400 300" xmlns="http://www.w3.org/2000/svg">
  <rect width="400" height="300" fill="#f8fafc" />
  
  <!-- 标题 -->
  <rect x="100" y="20" width="200" height="30" rx="4" fill="#e2e8f0" />
  
  <!-- 时间线 -->
  <line x1="100" y1="70" x2="100" y2="280" stroke="#cbd5e1" stroke-width="2" />
  
  <!-- 时间线节点和项目 -->
  <circle cx="100" cy="90" r="8" fill="#3b82f6" />
  <rect x="120" y="70" width="240" height="60" rx="6" fill="#ffffff" stroke="#cbd5e1" stroke-width="2" />
  <rect x="140" y="85" width="200" height="10" rx="2" fill="#94a3b8" />
  <rect x="140" y="100" width="200" height="20" rx="2" fill="#e2e8f0" />
  
  <circle cx="100" cy="170" r="8" fill="#3b82f6" />
  <rect x="120" y="150" width="240" height="60" rx="6" fill="#ffffff" stroke="#cbd5e1" stroke-width="2" />
  <rect x="140" y="165" width="200" height="10" rx="2" fill="#94a3b8" />
  <rect x="140" y="180" width="200" height="20" rx="2" fill="#e2e8f0" />
  
  <circle cx="100" cy="250" r="8" fill="#3b82f6" />
  <rect x="120" y="230" width="240" height="60" rx="6" fill="#ffffff" stroke="#cbd5e1" stroke-width="2" />
  <rect x="140" y="245" width="200" height="10" rx="2" fill="#94a3b8" />
  <rect x="140" y="260" width="200" height="20" rx="2" fill="#e2e8f0" />
</svg> 